<svg xmlns="http://www.w3.org/2000/svg" width="1000" height="1000" id="empty" style=""><g id="icon"><path fill="#ea451d" d="M207.97351952561706 191.03909155065472C207.67351952561705 190.8290915506547 207.35351952561706 190.62909155065472 207.04351952561706 190.42909155065473C206.19351952561706 182.50909155065472 197.80351952561705 175.15909155065472 186.65351952561707 173.62909155065472C184.99712626884707 173.40161406619472 183.32477692140705 173.3113072014247 181.65351952561707 173.35909155065474L181.53351952561707 173.35909155065474C180.46583649743707 173.38691008172472 179.40068952970705 173.47706358682473 178.34351952561707 173.62909155065472C186.34351952561707 176.74909155065473 187.85351952561706 181.62909155065472 186.68351952561707 184.78909155065472C186.56351952561707 185.18909155065472 186.43351952561707 185.59909155065472 186.26351952561706 186.0190915506547C186.22655852240706 186.12505858857472 186.14102385683705 186.20687435565472 186.03351952561707 186.23909155065473C185.87031329647706 186.5488534361047 185.69003590494705 186.8493157553147 185.49351952561705 187.1390915506547C185.38395526338707 186.04852514314473 185.17304420098705 184.9705352686447 184.86351952561705 183.9190915506547C184.02191116642706 181.36647698177472 182.78705009774706 178.9608596539847 181.20351952561705 176.78909155065472L180.79351952561706 176.2690915506547L180.34351952561707 175.71909155065472C179.72773421997707 174.9754547635747 179.05934904115705 174.2769922517047 178.34351952561707 173.62909155065472C173.29351952561706 168.1990915506547 164.87351952561707 164.78909155065472 155.60351952561706 164.7690915506547C151.51913389539706 164.7515336772547 147.46143310877704 165.42781714168473 143.60351952561706 166.7690915506547C140.71583065831706 167.8754042670747 137.96721509949705 169.31515527406472 135.41351952561706 171.05909155065473C140.31351952561704 171.43909155065472 143.62351952561704 172.8290915506547 145.57351952561706 174.9490915506547C147.38798503966706 176.4206146603347 148.64712357229706 178.46627390101472 149.14351952561705 180.74909155065473C149.47536646998705 182.21366945334472 149.69599539966705 183.70124329736473 149.80351952561705 185.1990915506547C149.65351952561707 184.8290915506547 149.48351952561706 184.4590915506547 149.31351952561704 184.09909155065472C149.31351952561704 183.98909155065473 149.20351952561705 183.8890915506547 149.15351952561707 183.7690915506547C149.10351952561706 183.6490915506547 148.91351952561706 183.28909155065472 148.77351952561708 183.05909155065473L148.55351952561705 182.67909155065473L148.43351952561704 182.46909155065472C144.56351952561704 176.55909155065473 135.86351952561705 174.04909155065474 132.05351952561705 173.3890915506547C129.57093012819706 173.0944036433147 127.06105497785705 173.11456328307472 124.58351952561706 173.4490915506547C119.78253683028706 174.0574913313547 115.21743902606705 175.88559610815472 111.32351952561706 178.75909155065472C108.60857854451706 180.73517793507472 106.46584012258705 183.3954860241447 105.11351952561706 186.46909155065472C108.40721585365706 185.0473270969847 112.05611554469706 184.6635995960147 115.57351952561706 185.36909155065473C116.53462052851705 185.5379320611147 117.47153901833705 185.8233731780947 118.36351952561706 186.21909155065472L118.98351952561706 186.50909155065472L118.98351952561706 186.50909155065472C121.04401131285705 187.5307036952247 122.70241402833706 189.21375358481473 123.69351952561706 191.28909155065472C123.73500560801706 191.3565575145547 123.73500560801706 191.44162558675472 123.69351952561706 191.50909155065472C123.66742960867705 191.54627530031473 123.63323656075706 191.57704904344473 123.59351952561705 191.59909155065472C123.49914296054706 191.68200301770472 123.35789609068706 191.68200301770472 123.26351952561706 191.59909155065472C118.86301499332706 187.6074757530747 112.63059390584706 186.34487320517474 107.02351952561706 188.30909155065473L107.02351952561706 188.30909155065473C106.01499380751706 188.67191528057472 105.04654470220706 189.13770914091472 104.13351952561706 189.6990915506547C94.13351952561706 195.8890915506547 90.23351952561706 202.18909155065472 91.80351952561706 206.9490915506547C94.03351952561705 213.5190915506547 104.51351952561706 212.3590915506547 112.21351952561706 211.67909155065473C122.40351952561706 210.67909155065473 135.71351952561707 208.52909155065473 151.27351952561705 208.2390915506547C153.10351952561706 208.2390915506547 154.92351952561705 208.18909155065472 156.75351952561707 208.2390915506547C173.10351952561706 208.39909155065473 187.06351952561707 210.62909155065472 197.66351952561706 211.7090915506547C213.66351952561706 213.55909155065473 217.02351952561705 210.31909155065472 218.07351952561706 206.97909155065472C219.57351952561706 202.56909155065472 216.32351952561706 196.78909155065472 207.97351952561706 191.03909155065472ZM206.97351952561706 196.9190915506547C207.15379911163706 196.00912565556473 207.26080882455705 195.0861668816847 207.29351952561706 194.15909155065472C207.29351952561706 193.36909155065473 207.22351952561706 192.5790915506547 207.18351952561707 191.78909155065472C207.22351952561706 191.78909155065472 210.43351952561707 195.46909155065472 206.99351952561705 196.9190915506547Z " transform="matrix(4.4523597160984005,0,0,4.452361031696591,-190.0869307094725,-295.95406560509537)"></path><path fill="#e6a918" d="M92.73351952561706 179.2090915506547C91.39414752093705 179.52621778663473 90.19605405943706 180.2745870162547 89.32351952561706 181.3390915506547C90.00314100425706 180.14505120102473 90.32591066534705 178.78108908478472 90.25351952561707 177.40909155065472C89.93351952561706 174.30909155065473 86.43351952561706 172.40909155065472 86.42351952561705 172.40909155065472C86.41351952561706 172.40909155065472 83.23351952561706 175.75909155065472 83.66351952561706 178.93909155065472C84.07351952561706 181.93909155065472 87.43351952561706 183.54909155065474 87.74351952561706 183.7090915506547C88.05351952561706 183.86909155065473 90.86351952561706 186.28909155065472 93.67351952561705 185.7090915506547C96.48351952561706 185.12909155065472 98.54351952561706 181.56909155065472 98.56351952561705 181.56909155065472C98.58351952561706 181.56909155065472 95.76351952561706 178.65909155065472 92.73351952561706 179.2090915506547Z " transform="matrix(4.4523597160984005,0,0,4.452361031696591,-190.0869307094725,-295.95406560509537)"></path><path fill="#e6a918" d="M99.79351952561706 170.43909155065472C98.44427759858706 170.6451881225447 97.19845938250705 171.28388929248473 96.24351952561706 172.25909155065472C97.02579585978705 171.13016130487472 97.46983292505706 169.80151914865473 97.52351952561706 168.42909155065473C97.52351952561706 165.30909155065473 94.17351952561705 163.0790915506547 94.16351952561706 163.0890915506547C94.15351952561706 163.09909155065472 90.69351952561706 166.0890915506547 90.83351952561706 169.3290915506547C90.96351952561706 172.3290915506547 94.15351952561706 174.2690915506547 94.45351952561705 174.4590915506547C94.75351952561707 174.6490915506547 97.32351952561706 177.30909155065473 100.17351952561705 176.96909155065472C103.02351952561706 176.62909155065472 105.37351952561706 173.29909155065474 105.39351952561705 173.29909155065474C105.41351952561706 173.29909155065474 102.86351952561706 170.1690915506547 99.79351952561706 170.43909155065472Z " transform="matrix(4.4523597160984005,0,0,4.452361031696591,-190.0869307094725,-295.95406560509537)"></path><path fill="#e6a918" d="M101.94351952561706 165.86909155065473C102.15351952561706 166.15909155065472 104.54351952561706 168.96909155065472 107.41351952561706 168.86909155065473C110.28351952561705 168.7690915506547 112.93351952561706 165.67909155065473 112.95351952561705 165.67909155065473C112.97351952561706 165.67909155065473 110.71351952561706 162.3390915506547 107.64351952561705 162.3290915506547C106.27715230526705 162.4119008739147 104.97333457121705 162.9306240584247 103.92351952561705 163.80909155065473C104.81097117982706 162.7607057814147 105.38002037240706 161.48034509811473 105.56351952561705 160.11909155065473C105.81351952561705 157.00909155065472 102.72351952561706 154.47909155065472 102.70351952561705 154.48909155065473C102.68351952561706 154.49909155065473 98.96351952561706 157.1990915506547 98.80351952561706 160.40909155065472C98.66351952561706 163.4590915506547 101.67351952561705 165.65909155065472 101.94351952561706 165.86909155065473Z " transform="matrix(4.4523597160984005,0,0,4.452361031696591,-190.0869307094725,-295.95406560509537)"></path><path fill="#e6a918" d="M110.20351952561705 157.99909155065473C110.38351952561706 158.30909155065473 112.50351952561707 161.3290915506547 115.37351952561706 161.50909155065472C118.24351952561706 161.68909155065472 121.17351952561705 158.8390915506547 121.20351952561705 158.8390915506547C121.23351952561706 158.8390915506547 119.28351952561705 155.29909155065474 116.20351952561705 155.0190915506547C114.83339648356706 154.9697412579747 113.48476467936706 155.37011632484473 112.36351952561706 156.15909155065472C113.35419333872706 155.19401113404473 114.04815343913705 153.96570175632473 114.36351952561706 152.61909155065473C114.90351952561706 149.53909155065472 112.06351952561705 146.73909155065473 112.04351952561706 146.74909155065473C112.02351952561706 146.75909155065472 108.04351952561706 149.11909155065473 107.60351952561706 152.29909155065474C107.15351952561706 155.29909155065474 109.95351952561705 157.75909155065472 110.20351952561705 157.99909155065473Z " transform="matrix(4.4523597160984005,0,0,4.452361031696591,-190.0869307094725,-295.95406560509537)"></path><path fill="#e6a918" d="M123.72351952561706 151.81909155065472C126.37351952561706 150.00909155065472 126.89351952561705 145.81909155065472 126.91351952561706 145.81909155065472C126.93351952561706 145.81909155065472 122.80351952561706 144.35909155065474 119.91351952561706 146.30909155065473C117.02351952561706 148.25909155065472 116.91351952561706 152.60909155065474 116.91351952561706 152.5890915506547C116.91351952561706 152.56909155065472 121.07351952561706 153.56909155065472 123.72351952561706 151.81909155065472Z " transform="matrix(4.4523597160984005,0,0,4.452361031696591,-190.0869307094725,-295.95406560509537)"></path><path fill="#e6a918" d="M77.59351952561707 204.33909155065473L76.38351952561706 203.83909155065473C79.30169068441705 197.0466662352247 82.81891388652706 190.52758840675472 86.89351952561705 184.35909155065474L87.52351952561706 184.7690915506547C83.64164995077707 190.9861322227347 80.31863995242705 197.5351056031647 77.59351952561707 204.33909155065473Z " transform="matrix(4.4523597160984005,0,0,4.452361031696591,-190.0869307094725,-295.95406560509537)"></path><path fill="#e6a918" d="M91.90351952561706 178.49909155065473C92.63685285894705 177.46575821732472 93.38685285894705 176.44575821732474 94.15351952561706 175.43909155065472L93.56351952561705 174.97909155065472C92.76351952561706 175.97909155065472 91.98351952561706 176.97909155065472 91.22351952561706 177.97909155065472Z " transform="matrix(4.4523597160984005,0,0,4.452361031696591,-190.0869307094725,-295.95406560509537)"></path><path fill="#e6a918" d="M99.02351952561706 169.65909155065472C99.85351952561706 168.65909155065472 100.69351952561706 167.75909155065472 101.55351952561706 166.8290915506547L101.00351952561707 166.31909155065472C100.12351952561706 167.22909155065472 99.25351952561707 168.15909155065472 98.39351952561705 169.09909155065472Z " transform="matrix(4.4523597160984005,0,0,4.452361031696591,-190.0869307094725,-295.95406560509537)"></path><path fill="#e6a918" d="M107.02351952561706 161.43909155065472C107.94351952561706 160.55909155065473 108.86351952561706 159.68909155065472 109.80351952561706 158.8390915506547L109.32351952561706 158.2790915506547C108.32351952561706 159.10909155065474 107.40351952561706 159.9590915506547 106.46351952561706 160.81909155065472Z " transform="matrix(4.4523597160984005,0,0,4.452361031696591,-190.0869307094725,-295.95406560509537)"></path><path fill="#e6a918" d="M115.32351952561706 154.31909155065472L116.59351952561705 153.31909155065472L116.14351952561705 152.72909155065472L114.80351952561706 153.72909155065472Z " transform="matrix(4.4523597160984005,0,0,4.452361031696591,-190.0869307094725,-295.95406560509537)"></path><path fill="#e6a918" d="M217.25351952561707 179.2090915506547C218.58200991668707 179.53223025272473 219.76875367872705 180.2800894873847 220.63351952561706 181.3390915506547C219.95389804697706 180.14505120102473 219.63112838588705 178.78108908478472 219.70351952561705 177.40909155065472C220.02351952561705 174.30909155065473 223.52351952561705 172.40909155065472 223.53351952561707 172.40909155065472C223.54351952561706 172.40909155065472 226.71351952561704 175.75909155065472 226.29351952561706 178.93909155065472C225.88351952561706 181.93909155065472 222.52351952561705 183.54909155065474 222.21351952561704 183.7090915506547C221.90351952561707 183.86909155065473 219.09351952561707 186.28909155065472 216.28351952561707 185.7090915506547C213.47351952561706 185.12909155065472 211.44351952561706 181.56909155065472 211.42351952561705 181.56909155065472C211.40351952561707 181.56909155065472 214.22351952561706 178.65909155065472 217.25351952561707 179.2090915506547Z " transform="matrix(4.4523597160984005,0,0,4.452361031696591,-190.0869307094725,-295.95406560509537)"></path><path fill="#e6a918" d="M210.18351952561707 170.43909155065472C211.53632302289705 170.64312212582473 212.78594577959706 171.28197420930474 213.74351952561705 172.25909155065472C212.96124319144707 171.13016130487472 212.51720612617706 169.80151914865473 212.46351952561704 168.42909155065473C212.46351952561704 165.30909155065473 215.80351952561705 163.0790915506547 215.82351952561706 163.0890915506547C215.84351952561707 163.09909155065472 219.29351952561706 166.0890915506547 219.15351952561707 169.3290915506547C219.02351952561705 172.3290915506547 215.82351952561706 174.2690915506547 215.53351952561707 174.4590915506547C215.24351952561705 174.6490915506547 212.66351952561706 177.30909155065473 209.81351952561707 176.96909155065472C206.96351952561704 176.62909155065472 204.61351952561705 173.29909155065474 204.59351952561707 173.29909155065474C204.57351952561706 173.29909155065474 207.12351952561707 170.1690915506547 210.18351952561707 170.43909155065472Z " transform="matrix(4.4523597160984005,0,0,4.452361031696591,-190.0869307094725,-295.95406560509537)"></path><path fill="#e6a918" d="M208.04351952561706 165.86909155065473C207.83351952561705 166.15909155065472 205.44351952561706 168.96909155065472 202.57351952561706 168.86909155065473C199.70351952561705 168.7690915506547 197.05351952561705 165.67909155065473 197.03351952561707 165.67909155065473C197.01351952561706 165.67909155065473 199.27351952561705 162.3390915506547 202.34351952561707 162.3290915506547C203.70718983415705 162.41050859028473 205.00824700611705 162.92952870201472 206.05351952561705 163.80909155065473C205.17298072364707 162.7574786584247 204.60789064877707 161.4782256668547 204.42351952561705 160.11909155065473C204.17351952561705 157.00909155065472 207.26351952561706 154.47909155065472 207.28351952561707 154.48909155065473C207.30351952561705 154.49909155065473 211.02351952561705 157.1990915506547 211.17351952561705 160.40909155065472C211.32351952561706 163.4590915506547 208.32351952561706 165.65909155065472 208.04351952561706 165.86909155065473Z " transform="matrix(4.4523597160984005,0,0,4.452361031696591,-190.0869307094725,-295.95406560509537)"></path><path fill="#e6a918" d="M199.78351952561707 157.99909155065473C199.60351952561706 158.30909155065473 197.48351952561706 161.3290915506547 194.61351952561705 161.50909155065472C191.74351952561705 161.68909155065472 188.81351952561707 158.8390915506547 188.78351952561707 158.8390915506547C188.75351952561707 158.8390915506547 190.70351952561705 155.29909155065474 193.78351952561707 155.0190915506547C195.15364256766705 154.9697412579747 196.50227437186706 155.37011632484473 197.62351952561707 156.15909155065472C196.63284571250705 155.19401113404473 195.93888561209707 153.96570175632473 195.62351952561707 152.61909155065473C195.08351952561705 149.53909155065472 197.92351952561705 146.73909155065473 197.94351952561706 146.74909155065473C197.96351952561704 146.75909155065472 201.94351952561706 149.11909155065473 202.38351952561706 152.29909155065474C202.83351952561705 155.29909155065474 200.03351952561707 157.75909155065472 199.78351952561707 157.99909155065473Z " transform="matrix(4.4523597160984005,0,0,4.452361031696591,-190.0869307094725,-295.95406560509537)"></path><path fill="#e6a918" d="M186.26351952561706 151.81909155065472C183.61351952561705 150.00909155065472 183.09351952561707 145.81909155065472 183.07351952561706 145.81909155065472C183.05351952561705 145.81909155065472 187.18351952561707 144.35909155065474 190.07351952561706 146.30909155065473C192.96351952561704 148.25909155065472 193.07351952561706 152.60909155065474 193.07351952561706 152.5890915506547C193.07351952561706 152.56909155065472 188.91351952561706 153.56909155065472 186.26351952561706 151.81909155065472Z " transform="matrix(4.4523597160984005,0,0,4.452361031696591,-190.0869307094725,-295.95406560509537)"></path><path fill="#e6a918" d="M232.39351952561705 204.33909155065473L233.60351952561706 203.83909155065473C230.68534836681707 197.0466662352247 227.16812516470705 190.52758840675472 223.09351952561707 184.35909155065474L222.46351952561704 184.7690915506547C226.34538910045706 190.9861322227347 229.66839909880707 197.5351056031647 232.39351952561705 204.33909155065473Z " transform="matrix(4.4523597160984005,0,0,4.452361031696591,-190.0869307094725,-295.95406560509537)"></path><path fill="#e6a918" d="M218.08351952561705 178.49909155065473C217.35685285894706 177.46575821732472 216.60685285894706 176.44575821732474 215.83351952561705 175.43909155065472L216.42351952561705 174.97909155065472C217.22351952561706 175.97909155065472 218.00351952561707 176.97909155065472 218.76351952561706 177.97909155065472Z " transform="matrix(4.4523597160984005,0,0,4.452361031696591,-190.0869307094725,-295.95406560509537)"></path><path fill="#e6a918" d="M210.96351952561704 169.65909155065472C210.13351952561706 168.65909155065472 209.29351952561706 167.75909155065472 208.43351952561707 166.8290915506547L208.98351952561706 166.31909155065472C209.86351952561705 167.22909155065472 210.73351952561706 168.15909155065472 211.58351952561705 169.09909155065472Z " transform="matrix(4.4523597160984005,0,0,4.452361031696591,-190.0869307094725,-295.95406560509537)"></path><path fill="#e6a918" d="M202.96351952561704 161.43909155065472C202.04351952561706 160.55909155065473 201.12351952561707 159.68909155065472 200.18351952561707 158.8390915506547L200.67351952561705 158.2790915506547C201.67351952561705 159.10909155065474 202.59351952561707 159.9590915506547 203.53351952561707 160.81909155065472Z " transform="matrix(4.4523597160984005,0,0,4.452361031696591,-190.0869307094725,-295.95406560509537)"></path><path fill="#e6a918" d="M194.66351952561706 154.31909155065472L193.39351952561705 153.31909155065472L193.84351952561707 152.72909155065472L195.18351952561707 153.72909155065472Z " transform="matrix(4.4523597160984005,0,0,4.452361031696591,-190.0869307094725,-295.95406560509537)"></path><g transform="matrix(8.904719432196801,0,0,8.904722063393182,-190.0869307094725,-295.95406560509537)"></g></g></svg>